<svg fill="none" height="1263" viewBox="0 0 1263 1263" width="1263" xmlns="http://www.w3.org/2000/svg"><g clip-rule="evenodd" fill-rule="evenodd"><path d="m261.971 290.49c245.022-290.136286 905.749-208.5717 850.049 414.971-33.95 380.289-318.275 468.879-631.348 412.449-380.541-68.58-407.6202-593.891-218.701-827.42z" fill="#fced8d"/><g fill="#2d140a"><path d="m241.056 272.303c75.023-88.814 186.495-144.715 305.646-163.382 93.791-14.7011 192.532-6.315 282.054 27.306 90.102 33.823 170.858 93.134 228.024 180.054 63.3 96.24 97.37 225.976 82.55 391.908-2.07 23.24-5.02 45.393-8.84 66.46-27.97 155.197-101.4 257.091-202.311 317.341-99.929 59.61-226.077 77.55-361.092 65.5-30.312-2.73-61.079-6.92-91.997-12.63-73.026-13.16-133.878-42.11-183.488-82.2-75.3-60.87-124.204-147.035-149.792-242.291-25.26-94.119-27.786-197.407-10.357-293.849 17.43-96.443 54.814-186.444 109.25-253.712l.353-.429zm312.138-120.743c-109.199 17.126-211.047 68-279.199 148.655-49.737 61.685-84.014 144.614-100.13 234.034-16.268 90.279-13.969 186.924 9.674 275.031 23.315 86.92 67.47 165.15 135.04 219.76 44.231 35.77 98.666 61.61 164.039 73.41 29.756 5.35 59.209 9.39 88.081 11.97 126.3 11.29 243.684-5.05 335.175-59.56 90.507-54.01 156.616-146.359 182.026-287.966 3.58-19.956 6.36-40.812 8.31-62.569 13.89-155.425-17.36-275.941-75.6-364.502-51.788-78.736-125.118-132.539-207.137-163.281-82.322-30.842-173.485-38.546-260.279-24.982z"/><path d="m416.411 284.983c1.212-3.45 3.102-6.624 5.557-9.335 2.456-2.71 5.428-4.903 8.743-6.449s6.905-2.414 10.56-2.553c3.655-.14 7.3.452 10.723 1.741s6.554 3.249 9.209 5.765 4.78 5.536 6.252 8.885c1.471 3.348 2.259 6.957 2.316 10.614.058 3.657-.616 7.288-1.981 10.682-13.16 34.959-37.46 59.588-64.716 76.512-32.213 19.396-68.82 30.303-106.395 31.701-3.599.057-7.174-.596-10.521-1.922-3.347-1.325-6.4-3.296-8.985-5.801s-4.651-5.495-6.08-8.799c-1.43-3.303-2.194-6.856-2.251-10.455-.056-3.6.597-7.175 1.922-10.521 1.325-3.347 3.297-6.4 5.802-8.985s5.495-4.651 8.798-6.08c3.304-1.43 6.857-2.194 10.456-2.251 27.714-1.088 54.7-9.188 78.432-23.542 17.935-11.14 33.823-27.054 42.159-49.207z"/><path d="m770.784 304.333c-2.378-6.771-2.012-14.203 1.022-20.706 3.033-6.504 8.491-11.561 15.207-14.09 6.715-2.529 14.154-2.329 20.723.558 6.57 2.887 11.748 8.231 14.427 14.889 8.336 22.153 24.224 38.066 42.159 49.206 23.743 14.35 50.736 22.449 78.457 23.542 3.599.057 7.152.821 10.456 2.251 3.303 1.429 6.293 3.495 8.798 6.08s4.477 5.638 5.802 8.985 1.978 6.922 1.922 10.521-.821 7.152-2.251 10.455c-1.429 3.304-3.495 6.294-6.08 8.799s-5.638 4.476-8.985 5.802c-3.346 1.325-6.921 1.978-10.521 1.922-37.584-1.395-74.2-12.302-106.42-31.702-27.18-16.924-51.556-41.552-64.716-76.512z"/><path d="m427.93 850.151c0-.127 2.804-38.421 41.553-40.77 22.557-1.364 31.146 14.095 39.987 30.034 3.662 6.618 7.578 13.464 9.472 13.438 2.4 0 6.618-6.491 10.938-13.11 10.331-15.812 20.965-32.08 46.225-31.474 26.044.607 34.531 17.682 42.74 34.354 2.905 5.886 5.734 11.594 6.947 11.594 2.526 0 6.441-6.921 10.356-13.766 8.892-15.535 17.682-30.893 40.113-31.297 22.734-.405 32.03 15.358 41.149 31.044 8.891 15.282 13.312 19.627 29.605 3.84 7.148-6.922 11.341-15.156 17.05-22.507 18.718-23.845 38.168-1.086 19.703 25.942 0 .177-19.526 40.618-56.507 41.932-23.138.808-32.307-15.005-41.527-30.843-3.739-6.416-6.568-12.883-8.917-12.857-2.753 0-5.052 6.441-8.866 12.958-9.119 15.939-18.364 32.106-42.159 32.106-23.896 0-31.701-15.763-39.759-32.081-3.385-6.845-6.896-13.918-10.66-13.994-5.052-.126-9.953 7.578-14.802 14.98-9.7 14.802-19.122 29.225-41.048 29.604-23.921.404-33.116-16.166-42.007-32.206-3.183-5.709-5.532-11.291-5.886-11.266-1.85.101-3.599.876-4.916 2.18-1.318 1.303-2.112 3.044-2.232 4.893z"/><path d="m204.808 931.412c6.795-24.679 108.618-181.19 111.599-232.619-17.177-13.906-33.07-29.326-47.489-46.075-14.701-17.176-27.18-35.566-32.459-51.707-3.788-11.257-5.081-23.203-3.789-35.01 1.503-13.076 6.659-25.463 14.878-35.743 8.141-10.209 19.09-17.813 31.5-21.875 10.133-3.267 20.858-4.275 31.423-2.956 1.238 0 2.526.329 3.663.531-.708-3.486-1.314-7.022-1.794-10.584-4.092-30.034 0-61.104 27.205-76.715 1.516-.859 2.829-1.566 3.916-2.096 17.378-8.21 32.56-11.292 45.821-10.685 14.07.491 27.562 5.716 38.294 14.827 9.263 8.083 16.673 18.069 21.724 29.277 1.288 2.728 2.526 5.481 3.536 8.285 2.419-3.282 5.007-6.436 7.755-9.447 7.423-8.364 16.485-15.113 26.624-19.829 11.461-5.204 24.323-6.466 36.577-3.587 11.771 2.702 23.997 9.194 36.526 20.688 16.459 15.458 27.951 35.461 33.014 57.466 4.623 21.219 1.844 42.614-11.594 58.629l-1.642 1.945c18.592 1.844 37.41 10.508 48.878 34.985 8.522 17.196 10.471 36.913 5.482 55.445-5.432 18.613-17.397 34.641-33.697 45.14-22.406 14.853-51.935 17.505-78.129 19.753-20.335 117.384-70.021 295.545-107.532 375.815-68.202-8.03-191.395-91.16-210.416-152.794-1.118-3.61-1.074-7.48.126-11.064z"/></g><path d="m238.025 936.439c26.447 44.962 95.735 112.761 151.181 124.181 45.821-107.99 90.936-210.848 103.894-357.735-.581-9.877 1.364-18.592 11.342-19.703 6.34-.707 11.569-1.162 16.924-1.617 22.481-1.92 47.994-4.117 62.923-14.095 9.118-5.744 15.855-14.589 18.97-24.906 2.678-10.374 1.474-21.369-3.385-30.919-10.104-21.344-41.679-12.958-54.89-9.447-15.307 4.067-24.931 6.543-30.539-11.139-4.421-14.07-1.693-16.015 9.321-23.821 3.561-2.526 12.478-8.841 32.838-33.191 5.532-6.593 6.365-16.975 3.966-28.014-3.455-15.006-11.298-28.645-22.532-39.178-7.578-7.047-14.399-10.836-20.208-12.2-4.691-1.059-9.6-.544-13.969 1.465-5.63 2.75-10.648 6.607-14.752 11.341-11.676 13.421-20.296 29.22-25.26 46.302-1.028 4.574-3.736 8.595-7.587 11.269-3.851 2.673-8.565 3.805-13.21 3.17s-8.882-2.99-11.874-6.599-4.521-8.21-4.284-12.892c-.088-17.066-3.727-33.927-10.685-49.51-2.859-6.553-7.088-12.419-12.403-17.202-4.678-3.998-10.572-6.295-16.722-6.517-7.755-.353-17.379 1.794-29.251 7.401l-1.389.682c-10.761 6.189-11.746 23.518-9.347 41.073 2.727 17.863 7.886 35.269 15.333 51.733l.859 1.793c1.939 3.36 2.784 7.24 2.419 11.102-.366 3.862-1.924 7.515-4.458 10.452-2.535 2.937-5.92 5.012-9.687 5.939s-7.729.658-11.336-.768c-6.821-2.703-10.913-7.35-15.939-13.059-5.027-5.709-12.075-13.716-20.461-14.702-5.471-.719-11.033-.227-16.293 1.44-5.757 1.868-10.841 5.381-14.625 10.104-3.94 5.062-6.381 11.126-7.048 17.505-.707 6.737.06 13.546 2.248 19.956 3.739 11.392 13.843 25.891 26.043 40.138 14.837 17.377 31.504 33.104 49.712 46.908 2.152 1.572 3.942 3.587 5.249 5.91 1.308 2.322 2.102 4.898 2.329 7.553 1.364 15.409-53.652 174.118-113.417 249.797z" fill="#fced8d"/><path d="m1056.4 936.616c-6.8-24.68-108.619-181.19-111.599-232.62 17.182-13.899 33.076-29.319 47.488-46.074 14.701-17.177 27.181-35.566 32.461-51.707 3.8-11.255 5.09-23.204 3.79-35.011-1.49-13.047-6.61-25.415-14.78-35.692-8.13-10.217-19.085-17.822-31.499-21.875-10.131-3.275-20.857-4.292-31.423-2.981-1.238.152-2.526.354-3.663.556.707-3.486 1.313-7.022 1.793-10.584 4.093-30.034 0-61.104-27.205-76.715-1.515-.884-2.829-1.566-3.915-2.096-17.379-8.21-32.56-11.317-45.822-10.685-14.069.491-27.562 5.716-38.294 14.827-9.262 8.083-16.672 18.069-21.723 29.277-1.289 2.702-2.526 5.481-3.537 8.285-2.418-3.282-5.007-6.436-7.755-9.447-7.417-8.369-16.48-15.12-26.624-19.829-11.433-5.204-24.265-6.483-36.5-3.638-11.771 2.703-24.023 9.195-36.526 20.688-16.469 15.451-27.963 35.457-33.015 57.467-4.623 21.193-1.844 42.613 11.594 58.628l1.642 1.945c-18.591 1.844-37.41 10.508-48.878 34.985-8.522 17.197-10.471 36.913-5.481 55.446 5.401 18.606 17.328 34.641 33.595 45.165 22.406 14.853 51.935 17.505 78.13 19.753 20.334 117.383 65.196 281.826 102.732 362.056 68.202-8.04 196.194-77.43 215.214-138.934 1.12-3.657 1.05-7.576-.2-11.19z" fill="#2d140a"/><path d="m1020.5 936.413c-26.444 44.988-98.334 107.587-153.779 118.997-45.822-107.983-85.884-200.435-98.691-347.322.581-9.876-1.364-18.591-11.342-19.703-6.34-.707-11.569-1.161-16.924-1.616-22.482-1.92-47.994-4.118-62.923-14.095-9.112-5.752-15.847-14.594-18.97-24.907-2.666-10.375-1.463-21.365 3.385-30.918 10.104-21.345 41.679-12.958 54.89-9.447 15.307 4.067 24.931 6.542 30.539-11.14 4.421-14.044 1.693-15.989-9.321-23.795-3.561-2.526-12.478-8.841-32.838-33.191-5.532-6.618-6.365-16.975-3.966-28.014 3.457-14.985 11.291-28.605 22.507-39.127 7.578-7.048 14.398-10.837 20.334-12.201 4.691-1.06 9.6-.545 13.969 1.465 5.635 2.742 10.654 6.6 14.752 11.342 11.681 13.417 20.301 29.217 25.26 46.301 1.029 4.574 3.736 8.596 7.587 11.269 3.851 2.674 8.565 3.805 13.21 3.17s8.882-2.99 11.874-6.599 4.521-8.209 4.284-12.892c.088-17.065 3.727-33.926 10.685-49.509 2.868-6.556 7.095-12.428 12.403-17.228 4.688-3.978 10.578-6.264 16.722-6.491 7.755-.379 17.379 1.793 29.276 7.401l1.365.682c10.76 6.189 11.745 23.517 9.346 41.073-2.715 17.865-7.874 35.273-15.333 51.732l-.834 1.794c-1.955 3.358-2.813 7.244-2.455 11.113.359 3.87 1.916 7.532 4.455 10.474 2.539 2.943 5.933 5.019 9.709 5.94s7.745.64 11.354-.802c6.795-2.703 10.887-7.351 15.914-13.06 5.026-5.708 12.099-13.716 20.46-14.701 5.471-.719 11.033-.228 16.293 1.44 5.757 1.867 10.841 5.38 14.625 10.104 3.951 5.055 6.393 11.123 7.048 17.505.706 6.736-.061 13.545-2.248 19.955-3.739 11.393-13.843 25.892-26.043 40.139-14.837 17.377-31.504 33.104-49.712 46.907-2.149 1.57-3.937 3.581-5.244 5.899-1.308 2.318-2.103 4.889-2.334 7.54-1.389 15.383 51.025 168.863 110.711 244.516z" fill="#fced8d"/><path d="m325.854 702.38c33.646 6.289 54.385 28.19 58.881 46.251 12.302 49.383-152.318 29.781-162.624 22.127-46.908-34.707 44.635-79.417 103.743-68.378z" fill="#eaa5ab"/><path d="m268.059 700.157c.706-2.265 2.284-4.156 4.385-5.257s4.553-1.323 6.817-.616c2.265.706 4.156 2.284 5.257 4.385s1.323 4.553.616 6.818l-16.848 53.475c-.331 1.142-.886 2.206-1.633 3.131s-1.671 1.692-2.717 2.255c-1.047.564-2.196.913-3.379 1.028-1.184.114-2.378-.009-3.513-.362-1.135-.352-2.189-.928-3.099-1.693-.911-.764-1.659-1.703-2.202-2.76-.544-1.058-.87-2.213-.962-3.398-.091-1.186.055-2.377.429-3.506z" fill="#2d140a"/><path d="m322.823 696.671c.968-2.161 2.755-3.848 4.967-4.691 2.212-.844 4.669-.773 6.829.195 2.161.968 3.848 2.754 4.692 4.967.843 2.212.773 4.669-.195 6.829l-27.786 61.786c-.478 1.07-1.162 2.035-2.012 2.841-.851.805-1.852 1.435-2.946 1.854-1.095.419-2.261.618-3.432.586s-2.324-.294-3.394-.772-2.035-1.161-2.841-2.012c-.805-.851-1.435-1.852-1.854-2.946s-.618-2.26-.586-3.431c.032-1.172.294-2.325.772-3.395z" fill="#2d140a"/><path d="m978.75 702.38c33.62 6.289 54.38 28.19 58.88 46.251 12.3 49.383-152.317 29.781-162.623 22.127-46.908-34.707 44.635-79.417 103.743-68.378z" fill="#eaa5ab"/><path d="m920.955 700.157c.35-1.122.917-2.163 1.67-3.065.752-.902 1.675-1.647 2.715-2.192s2.178-.88 3.347-.986c1.17-.106 2.349.02 3.471.37 1.121.35 2.162.917 3.064 1.669.902.753 1.647 1.675 2.192 2.716.546 1.04.881 2.178.986 3.347.106 1.17-.019 2.349-.369 3.471l-16.849 53.475c-.331 1.142-.886 2.206-1.633 3.131-.746.925-1.67 1.692-2.717 2.255-1.047.564-2.196.913-3.379 1.028-1.183.114-2.378-.009-3.513-.362-1.135-.352-2.189-.928-3.099-1.693-.91-.764-1.659-1.703-2.202-2.76-.543-1.058-.87-2.213-.962-3.398-.091-1.186.055-2.377.429-3.506z" fill="#2d140a"/><path d="m975.719 696.671c.968-2.161 2.755-3.848 4.967-4.691 2.212-.844 4.669-.773 6.829.195 2.161.968 3.848 2.754 4.691 4.967.844 2.212.774 4.669-.194 6.829l-27.786 61.786c-.442 1.124-1.108 2.147-1.956 3.007s-1.862 1.54-2.98 1.997c-1.118.458-2.317.684-3.525.665s-2.399-.282-3.503-.774c-1.103-.492-2.095-1.202-2.916-2.088s-1.455-1.929-1.862-3.066c-.407-1.138-.579-2.346-.506-3.551.073-1.206.389-2.385.93-3.465z" fill="#2d140a"/></g></svg>